<!-- Generator: Adobe Illustrator 21.1.0, SVG Export Plug-In  -->
<svg version="1.1"
	 xmlns="http://www.w3.org/2000/svg" xmlns:xlink="http://www.w3.org/1999/xlink" xmlns:a="http://ns.adobe.com/AdobeSVGViewerExtensions/3.0/"
	 x="0px" y="0px" width="325px" height="220.4px" viewBox="0 0 325 220.4"
	 style="overflow:scroll;enable-background:new 0 0 325 220.4;" xml:space="preserve">
<style type="text/css">
	.st0{fill-rule:evenodd;clip-rule:evenodd;}
	.st1{fill-rule:evenodd;clip-rule:evenodd;fill:url(#SVGID_1_);}
	.st2{clip-path:url(#SVGID_3_);}
	.st3{fill-rule:evenodd;clip-rule:evenodd;fill:#001E51;}
	.st4{fill-rule:evenodd;clip-rule:evenodd;fill:#FFFFFF;}
	.st5{fill-rule:evenodd;clip-rule:evenodd;fill:url(#SVGID_4_);}
	.st6{clip-path:url(#SVGID_6_);}
	.st7{opacity:0.5;fill-rule:evenodd;clip-rule:evenodd;fill:#E4A48A;}
	.st8{fill-rule:evenodd;clip-rule:evenodd;fill:#CC2128;}
	.st9{fill-rule:evenodd;clip-rule:evenodd;fill:#AB2026;}
	.st10{fill-rule:evenodd;clip-rule:evenodd;fill:url(#SVGID_7_);}
	.st11{clip-path:url(#SVGID_9_);}
	.st12{opacity:0.18;fill-rule:evenodd;clip-rule:evenodd;fill:#FFFFFF;}
	.st13{fill-rule:evenodd;clip-rule:evenodd;fill:url(#SVGID_10_);}
	.st14{clip-path:url(#SVGID_12_);}
	.st15{fill-rule:evenodd;clip-rule:evenodd;fill:url(#SVGID_13_);}
	.st16{clip-path:url(#SVGID_15_);}
	.st17{fill-rule:evenodd;clip-rule:evenodd;fill:url(#SVGID_16_);}
	.st18{clip-path:url(#SVGID_18_);}
</style>
<defs>
</defs>
<g>
	<path class="st0" d="M87.4,202.3c3.3,1.7,8.2,3.2,11.8,3.4c3.6,0.3,6-0.7,6.4-3.7c0.5-3-0.9-8-3.5-12.2c-2.6-4.2-6.5-7.5-10.9-9.3
		c-4.4-1.8-9.3-2.2-11.1,0.8c-1.8,3-0.5,9.4,1,13.5C82.4,198.9,84.1,200.7,87.4,202.3z"/>
	<radialGradient id="SVGID_1_" cx="171.3122" cy="99.1678" r="156.5775" gradientUnits="userSpaceOnUse">
		<stop  offset="0" style="stop-color:#244085"/>
		<stop  offset="1" style="stop-color:#132960"/>
	</radialGradient>
	<circle class="st1" cx="162.5" cy="110.2" r="110.2"/>
	<g>
		<defs>
			<circle id="SVGID_2_" cx="162.5" cy="110.2" r="110.2"/>
		</defs>
		<clipPath id="SVGID_3_">
			<use xlink:href="#SVGID_2_"  style="overflow:visible;"/>
		</clipPath>
		<g class="st2">
			<path class="st3" d="M272.1,57c0.2-0.2,0.5-0.4,0.8-0.6c5.9-4.5,13.7-6.6,21.2-6.6c5.6,0,10.2,1.9,11.7,8.2
				c0.1,0.3,0.1,0.5,0.2,0.8c0,0.3,0,0.6,0,0.8c0,5.3-2.8,9-6.6,11.9c-1.4,1.1-2.8,2.1-4.2,3.1c-1.2-1.3-2.4-2.6-3.6-3.9
				c-0.3-0.3-1.1-1.1-1.6-1.3c0,0.1,0,0.3,0,0.3c0,0.5,1,1.9,1.3,2.3c5.5,7.2,10.3,13.2,10.3,23.2c0,8.6-3.6,16.2-9.1,21.5
				c-5.5,5.3-12.8,8.5-20.5,8.6v-21c0.4,0.2,0.9,0.4,1.4,0.4c1.6,0,1.7-0.5,1.7-2.4c0-1.2-1.5-3.3-3.1-5.2V57z M199.2,37.3
				c3.8,1.8,6.3,5.8,6.3,10.9c0,2.2,0,4.3,0,6.5c-0.3,0-0.6,0-0.9,0c-0.1,0.9-0.3,1.9-0.4,2.8c2.3-0.1,4.7-0.3,7-0.7l6.7-1.1
				c5.3-3.5,11.6-5.5,18.2-5.5c11.9,0,22.5,6.4,28.8,16.2c1.6-3.8,4.1-7,7.2-9.5v40.3c-0.5-0.6-1.1-1.3-1.6-1.9
				c-0.4,2-0.9,3.9-1.5,5.8c0.9,1.4,1.9,2.6,3.1,3.2v21l-0.2,0c-5.7,0-11.5-2.3-15.6-6.4c-5.7,4.4-12.7,6.9-20.2,6.9
				c-11.5,0-21.8-6-28.2-15.3c-1.2,1.9-2.6,3.8-4.1,5.5c-1.4,1.6-3,3.1-4.6,4.3V93.8c0.7-0.6,1.4-1.1,2.1-1.6
				c-0.1-1.4-0.2-2.8-0.2-4.2c0-3,0.3-6,1-8.8c-0.6,0-1.3,0-1.9,0c-0.3,1.5-0.6,3-0.9,4.5V37.3z M48.2,24.4
				c9.7,0.1,20.9,1.9,27.6,10.1c3.9,4.8,5.3,10.7,5.4,16.9c0.2,0,0.5,0,0.7,0c7.3,0,12,4.8,12,12.6c0,2.8-0.6,5.5-1.2,8.2
				c-1.4,6.4-2.9,12.8-4.3,19.2c1.2-1.9,2.3-3.9,3.3-5.9c3-5.8,7.2-15.6,7.2-22.3c0-0.2,0-0.7-0.1-0.9c-1-2.2-2.1-4.4-3.1-6.6
				c2.2-0.8,4.3-1.6,6.5-2.4c3.2-1.2,7.4-1.9,10.8-1.9c0.1,0,0.1,0,0.2,0c0.1,0,0.1,0,0.2,0c3.8,0.3,7.1,1.7,9.2,4.3
				c0.4-0.2,0.8-0.4,1.2-0.6c4-2,8.8-3.7,13.3-3.7c5.2,0,9.6,3.2,11,8.3c5.1-5,11-8.7,16.9-8.7c5.7,0,10.5,3.3,12.7,8.5
				c0.4-2.5,0.6-4.9,0.6-7.1c0-1.3-0.1-2.2-0.6-3.4c-0.7-1.8-1.5-3.6-2.2-5.4c1.6-1,3.2-1.9,4.8-2.9c4.4-2.7,9-4.5,14.1-4.5
				c1.8,0,3.4,0.4,4.8,1v46.4c-0.6,2.7-1.2,5.4-1.8,8.1c-0.4,1.5-0.7,3.2-1,5c0.9-1,1.8-2,2.8-2.9v26.6c-3.7,2.9-7.7,4.7-11.5,4.7
				c-5.7,0-10.4-2-13.5-5.8c-3.9,3.5-8.6,6-13.1,6c-9.3,0-15.3-6.7-15.3-16.7c0-4.7,1.2-9.5,2.2-14.1c0.3-1.5,0.6-3,1-4.6
				c0,0,0,0,0,0.1c-1.6,2.7-3,5.4-4.3,8.2c-2.5,5.4-4.5,11.2-6.6,16.8c-2.6,7.1-7,10.1-14.1,10.1c-3,0-6-0.5-8.9-1
				c-1-0.2-2-0.3-2.9-0.5c-1.8,0.7-3.6,1.1-5.5,1.1c-6.6,0-11.1-3.5-13.4-8.8c-5.1,5.6-11.4,9.8-18.8,9.8c-10.4,0-15-7.6-15-17.9
				c0-3.3,0.7-7,1.3-10.2c0.8-4.1,1.7-8.1,2.6-12.1c0.1-0.6,0.3-1.2,0.4-1.9c-4.7,3-10,5.1-15.4,6V66.1c3.4-2.4,5.4-6.4,5.4-12.5
				c0-1.6-0.2-3.8-1.3-4.9c-0.9-1-2.5-1.5-4-1.7V24.4z M38.3,89.7c-0.4,1.8-0.7,3.6-1,5.3c-0.9,4.8-2,11-2,15.9
				c0,1.7,0.2,2.4,0.7,3.9c0.5,1.6,1,3.2,1.6,4.9c-1.3,0.9-2.7,1.9-4,2.8c-4,2.7-9.8,3.9-14.5,3.9c-6.6,0-12.2-3.7-12.2-11.4
				c0-3.6,0.7-7.4,1.5-10.9c1.1-4.8,2.2-9.6,3.3-14.5c1.1-4.8,2.2-9.7,3.3-14.5c1.7-7.9,3.4-15.8,4.7-23.8c0.1-0.8,0.3-1.6,0.4-2.5
				c-2-1.4-3.2-3.8-3.2-7.1c0-0.1,0-0.2,0-0.2c0-0.1,0-0.2,0-0.3c0.3-3.9,0.9-7.6,3.8-10.2c0.1-0.1,0.3-0.3,0.5-0.4
				c0.2-0.1,0.4-0.2,0.5-0.3c7.2-4.1,17.2-6,25.3-6c0.4,0,0.8,0,1.1,0V47c-0.4-0.1-0.9-0.1-1.3-0.2c-0.1,2.3-0.5,4.6-1,6.9
				c-1,4.9-2,9.8-3.1,14.6c2-0.4,3.8-1.1,5.4-2.2v23.5c-2.3,0.4-4.6,0.6-6.9,0.6C40.2,90.2,39.2,90,38.3,89.7z"/>
		</g>
	</g>
	<path class="st4" d="M288.2,52.9c0.3-0.2,0.5-0.4,0.8-0.6c6.4-4.5,14.9-6.7,23.1-6.7c6,0,11,1.9,12.7,8.2c0.1,0.3,0.1,0.5,0.2,0.8
		c0,0.3,0,0.6,0,0.8c0,5.3-3,9-7.2,12c-1.5,1.1-3,2.1-4.5,3.2c-1.3-1.3-2.6-2.6-3.9-3.9c-0.3-0.3-1.2-1.1-1.8-1.3c0,0.1,0,0.3,0,0.3
		c0,0.5,1.1,2,1.4,2.3c6,7.3,11.2,13.3,11.2,23.3c0,8.7-3.9,16.3-9.9,21.7c-5.9,5.4-13.9,8.6-22.2,8.6v-21.1c0.5,0.2,1,0.4,1.5,0.4
		c1.8,0,1.9-0.5,1.9-2.4c0-1.2-1.6-3.3-3.4-5.3V52.9z M208.9,33c4.2,1.8,6.8,5.8,6.8,11c0,2.2,0,4.4,0,6.6c-0.3,0-0.6,0-0.9,0
		c-0.1,0.9-0.3,1.9-0.5,2.8c2.5-0.1,5.1-0.3,7.6-0.7l7.3-1.1c5.8-3.5,12.6-5.6,19.8-5.6c13,0,24.4,6.5,31.3,16.3
		c1.8-3.9,4.5-7,7.8-9.5v40.6c-0.6-0.7-1.2-1.3-1.7-1.9c-0.4,2-0.9,4-1.6,5.8c0.9,1.4,2.1,2.6,3.4,3.2v21.1l-0.2,0
		c-6.2,0-12.5-2.3-16.9-6.5c-6.2,4.4-13.8,7-22,7c-12.5,0-23.7-6.1-30.6-15.4c-1.3,1.9-2.8,3.8-4.5,5.5c-1.6,1.6-3.3,3.1-5,4.4V90
		c0.7-0.6,1.5-1.2,2.3-1.6c-0.2-1.4-0.2-2.8-0.2-4.2c0-3,0.4-6,1-8.8c-0.7,0-1.4,0-2.1,0c-0.3,1.5-0.7,3-1,4.5V33z M34.2,85.8
		c-0.4,1.8-0.7,3.6-1.1,5.4c-1,4.9-2.2,11.1-2.2,16c0,1.7,0.2,2.4,0.7,4c0.6,1.6,1.1,3.3,1.7,4.9c-1.5,0.9-2.9,1.9-4.4,2.8
		c-4.3,2.8-10.6,3.9-15.7,3.9C6,122.8,0,119.1,0,111.3c0-3.6,0.7-7.4,1.6-10.9c1.2-4.9,2.4-9.7,3.6-14.6c1.2-4.9,2.4-9.7,3.6-14.6
		c1.9-7.9,3.7-15.9,5.1-24c0.2-0.8,0.3-1.6,0.5-2.5c-2.2-1.4-3.4-3.9-3.4-7.2c0-0.1,0-0.2,0-0.2c0-0.1,0-0.2,0-0.3
		c0.3-3.9,0.9-7.6,4.2-10.3c0.2-0.1,0.3-0.3,0.5-0.4c0.2-0.1,0.4-0.2,0.6-0.3c7.8-4.1,18.7-6,27.5-6c10.8,0,23.7,1.6,31.2,10.2
		c4.2,4.8,5.8,10.8,5.8,17c0.3,0,0.5,0,0.8,0c7.9,0,13,4.8,13,12.7c0,2.8-0.6,5.5-1.3,8.3c-1.5,6.5-3.1,12.9-4.6,19.4
		c1.3-1.9,2.5-3.9,3.6-5.9c3.2-5.8,7.8-15.7,7.8-22.5c0-0.2,0-0.7-0.1-0.9c-1.1-2.2-2.2-4.4-3.3-6.6c2.3-0.8,4.7-1.6,7.1-2.4
		c3.5-1.2,8-1.9,11.7-1.9c0.1,0,0.1,0,0.2,0c0.1,0,0.1,0,0.2,0c4.1,0.3,7.7,1.7,10,4.3c0.4-0.2,0.9-0.4,1.3-0.6
		c4.4-2,9.5-3.7,14.4-3.7c5.7,0,10.5,3.2,12,8.4c5.6-5.1,12-8.7,18.4-8.7c6.2,0,11.4,3.4,13.7,8.5c0.4-2.5,0.6-5,0.6-7.1
		c0-1.3-0.1-2.2-0.6-3.5c-0.8-1.8-1.6-3.6-2.4-5.4c1.7-1,3.4-2,5.2-2.9c4.8-2.7,9.8-4.6,15.3-4.6c1.9,0,3.7,0.4,5.2,1v46.7
		c-0.6,2.7-1.3,5.4-2,8.1c-0.4,1.5-0.8,3.2-1.1,5c0.9-1,2-2,3.1-2.9v26.8c-4,2.9-8.4,4.7-12.5,4.7c-6.2,0-11.3-2-14.6-5.9
		c-4.3,3.5-9.3,6.1-14.3,6.1c-10.1,0-16.6-6.7-16.6-16.8c0-4.8,1.3-9.5,2.4-14.2c0.4-1.5,0.7-3.1,1-4.6c0,0,0,0,0,0.1
		c-1.7,2.7-3.3,5.4-4.7,8.2c-2.7,5.4-4.9,11.3-7.1,17c-2.9,7.1-7.6,10.1-15.3,10.1c-3.2,0-6.6-0.5-9.7-1c-1.1-0.2-2.1-0.3-3.2-0.5
		c-1.9,0.7-3.9,1.1-5.9,1.1c-7.2,0-12.1-3.5-14.6-8.8c-5.6,5.6-12.3,9.8-20.4,9.8c-11.3,0-16.3-7.7-16.3-18c0-3.3,0.7-7,1.4-10.3
		c0.8-4.1,1.8-8.2,2.8-12.2c0.1-0.6,0.3-1.3,0.5-1.9C54.5,84,46,86.3,37.4,86.3C36.2,86.3,35.1,86.1,34.2,85.8z"/>
	
		<radialGradient id="SVGID_4_" cx="246.3194" cy="78.7791" r="35.2432" gradientTransform="matrix(0.4384 0.8988 -0.8987 0.4383 209.1392 -177.1424)" gradientUnits="userSpaceOnUse">
		<stop  offset="0" style="stop-color:#CC2128"/>
		<stop  offset="1" style="stop-color:#69181A"/>
	</radialGradient>
	<path class="st5" d="M249,50.3c9.3,0,17.8,3.8,23.9,9.9c6.1,6.1,9.9,14.6,9.9,23.9s-3.8,17.8-9.9,23.9c-6.1,6.1-14.6,9.9-23.9,9.9
		c-9.4,0-17.8-3.8-24-9.9c-6.1-6.1-9.9-14.6-9.9-23.9s3.8-17.8,9.9-23.9C231.2,54.1,239.7,50.3,249,50.3z"/>
	<g>
		<defs>
			<path id="SVGID_5_" d="M249,50.3c9.3,0,17.8,3.8,23.9,9.9c6.1,6.1,9.9,14.6,9.9,23.9s-3.8,17.8-9.9,23.9
				c-6.1,6.1-14.6,9.9-23.9,9.9c-9.4,0-17.8-3.8-24-9.9c-6.1-6.1-9.9-14.6-9.9-23.9s3.8-17.8,9.9-23.9
				C231.2,54.1,239.7,50.3,249,50.3z"/>
		</defs>
		<clipPath id="SVGID_6_">
			<use xlink:href="#SVGID_5_"  style="overflow:visible;"/>
		</clipPath>
		<g class="st6">
			<path class="st7" d="M249.9,52c11.4,0,21.5,5.8,27.4,14.7c-5.9-7.6-15.2-12.6-25.6-12.6c-17.9,0-32.4,14.5-32.4,32.4
				c0,10.4,4.9,19.7,12.6,25.6c-8.9-5.9-14.7-15.9-14.7-27.4C217.1,66.7,231.8,52,249.9,52z"/>
		</g>
	</g>
	<circle class="st4" cx="228.6" cy="62.9" r="3"/>
	<g>
		<path class="st0" d="M224.9,85.8c-0.4,0.4-0.7,0.8-0.9,1.3c-0.2,0.5-0.2,1,0,1.1c0.2,0.1,0.6-0.3,0.9-0.5c0.3-0.2,0.5-0.3,0.8-0.3
			c0.4,0,1,0.2,2,0.5c1,0.4,2.5,0.9,3.9,2c1.4,1,2.7,2.5,3.9,4.3c1.2,1.8,2.2,3.9,3.3,5.5c1.1,1.6,2.1,2.7,3.1,3.5
			c1,0.8,1.8,1.2,2.8,1.5c1,0.3,2.1,0.4,3.7,0.4c1.6,0.1,3.8,0.1,5.5-0.1c1.7-0.3,2.9-0.9,3.9-2c1-1.1,1.7-2.7,2.9-4.5
			c1.2-1.8,2.7-3.9,4-5.3c1.2-1.4,2.1-2,3.3-2.6c1.1-0.5,2.5-1,3.3-1.1c0.8-0.2,1.1-0.1,1.3,0c0.2,0.2,0.3,0.4,0.5,0.7
			c0.1,0.3,0.3,0.7,0.5,0.9c0.2,0.2,0.4,0.2,0.4-0.2c0-0.4-0.1-1.2-0.6-1.9c-0.4-0.8-1.1-1.5-1.7-2c-0.6-0.5-1-0.7-1.1-0.6
			c-0.1,0.1,0,0.5,0.3,0.9c0.2,0.4,0.5,0.8,0.6,1c0,0.2-0.2,0.2-1,0.4c-0.7,0.2-1.9,0.5-4,1c-2.1,0.4-5.2,1-8.2,1.3
			c-3,0.3-5.8,0.3-8.7,0.2c-2.9-0.1-5.8-0.4-8.4-0.7c-2.6-0.3-4.8-0.8-6.7-1.3c-1.9-0.5-3.6-1.2-4.8-1.7c-1.3-0.6-2.1-1-2.6-1.3
			c-0.5-0.3-0.6-0.4-0.5-0.5c0.1-0.1,0.3-0.3,0.5-0.6c0.2-0.3,0.4-0.7,0.4-0.9c0-0.2-0.2-0.3-0.4-0.3c-0.2,0.1-0.5,0.2-0.9,0.6
			C225.8,84.9,225.3,85.4,224.9,85.8z"/>
		<path class="st8" d="M242.5,103.6c0.8,0.5,1.5,0.9,2.3,1.1c1,0.3,2.1,0.4,3.7,0.4c1.2,0.1,2.7,0.1,4.1,0c0.2-0.1,0.4-0.2,0.5-0.2
			c1.7-0.8,2.4-1.6,3.3-2.4c0.9-0.8,1.8-1.6,2.3-2c0.4-0.5,0.4-0.7-0.1-0.8c-0.5-0.2-1.3-0.3-2.2-0.2c-0.9,0.1-1.7,0.3-2.9,0.8
			c-1.1,0.4-2.6,1-3.3,1.3c-0.7,0.2-0.8,0.1-0.7-0.1c0.1-0.2,0.4-0.4,1-0.6c0.6-0.3,1.5-0.6,2-0.9c0.4-0.3,0.4-0.4,0.2-0.5
			c-0.2-0.1-0.7,0-1.7,0.2c-1,0.2-2.6,0.5-4.2,1.1c-1.6,0.6-3.1,1.5-3.9,2.4C242.7,103.3,242.6,103.5,242.5,103.6z"/>
		<path class="st4" d="M235.6,91.7c0.7,1.2,2.2,3.4,3.6,4.7c1.4,1.4,2.6,1.9,4.9,2.2c2.3,0.3,5.7,0.3,8.6,0.1
			c2.9-0.2,5.3-0.6,6.8-1.5c1.5-0.9,2.2-2.1,2.9-3.2c0.6-1,1.2-1.8,1.3-2.1c0-0.3-0.5-0.2-2.4-0.1c-1.8,0.2-4.9,0.4-8.4,0.4
			c-3.5,0-7.5-0.2-10.4-0.5c-2.8-0.3-4.5-0.7-5.6-1c-1.1-0.3-1.5-0.4-1.7-0.4C234.9,90.4,234.9,90.5,235.6,91.7z"/>
		<path class="st0" d="M243.3,108.3c0.5,0.2,1.6,0.7,2.8,1c1.2,0.3,2.4,0.6,3.9,0.5c1.5-0.1,3.3-0.4,4.4-0.7
			c1.1-0.3,1.4-0.6,1.2-0.7c-0.2-0.1-1-0.1-2.4,0c-1.4,0.1-3.3,0.2-4.8,0.2c-1.5,0-2.7-0.2-3.4-0.3c-0.8-0.1-1.2-0.2-1.5-0.2
			C243.1,108,242.9,108,243.3,108.3z"/>
	</g>
	<path class="st8" d="M26.6,89.9c1.4-7.1,3-14,4.6-20.9c1.6-6.9,3.3-13.7,4.9-20.9c0.6-2.7,0.9-4.7,0.9-6.5c0-1.9-0.4-3.5-1-5
		c1.9-0.4,3.8-0.7,5.1-0.7c9.8-0.1,16.2,3.5,16.2,13.5c0,14.2-9.2,21.8-23.2,21.8c-0.8,0-1,0-1,0.5c0,4.1,1.1,8,4.4,8
		c10.3,0,19.5-3.7,26.1-9.5c6.6-5.9,10.6-14,10.6-22.8c0-15.7-12.2-20.8-30.5-20.8c-8.1,0-18,1.6-24.4,5.2c-1.4,0.8-1.7,2.8-1.8,5.7
		c-0.1,4,3.7,0.2,3.7,4.5c0,1.8-0.4,4.4-0.8,6.4c-1.3,7.2-3.1,15.4-5.2,24.4C13,81.8,10.5,91.6,8,102c-0.8,3.3-1.5,6.6-1.5,9.4
		c0,3.1,2,4.9,6.7,4.9c4.5,0,9.4-1.1,12.2-2.9c-0.7-1.9-1.1-3.2-1.1-6.1C24.3,103.2,25.2,97.1,26.6,89.9L26.6,89.9z M115.3,53.9
		c3.6,0.1,6.8,1.5,6.8,6c0,2.3-0.5,5.1-1.4,8.4c-1.5,5.5-3.2,11-4.5,16c-1.3,5.1-2.1,9.8-2.1,13.8c0,2.2,0.7,3.8,1.2,4.8
		c3.1-0.7,11-9.6,12.2-9.6c0.5,0,0.7,0.3,0.7,1c0,8-11.8,20.3-19.9,20.3c-6.3,0-9.9-3.9-9.9-11.9c0-3,0.5-5.6,1-8.6
		c-8.6,14.1-17,21.5-26,21.5c-8.3,0-9.7-5.8-9.7-11.5c0-4.3,2-12.8,4-21.2c2-8.4,4-16.8,4-21c0-1.9-0.2-4-1.1-5.7
		c4-1.6,8-2.3,10.9-2.3c5.1,0,6.5,2.8,6.5,6.1c0,2.2-0.7,4.8-1.1,6.8c-1.8,7.8-3.6,14.9-5,20.8c-1.4,5.8-2.3,10.4-2.3,13.1
		c0,1.5,0.5,2.9,2.1,2.9c3.1,0,10.1-7.7,16.2-18.7c5.7-10.4,8.6-19.6,8.6-25.7c0-1.2-0.2-2.7-0.8-3.8
		C108.6,54.4,112.5,53.8,115.3,53.9L115.3,53.9z M162.5,67.4c0.9,0,1.7,0.7,1.7,2.5c0,1.7-1.6,9.7-4.5,22.3c-1.1,5-2.2,8.9-2.2,12.7
		c0,7,4.1,10.3,10,10.3c7.8,0,19.8-12,19.8-20.3c0-0.7-0.2-0.9-0.7-0.9c-1.2,0-3.1,1.9-6.7,5.6c-2.1,2.2-4.5,3.6-5.5,3.9
		c-0.6-1-1.1-2.6-1.1-4.8c0-4,1.9-9.8,3.3-15.3c2.3-8.7,3.7-16.6,3.7-21.7c0-4.7-3.5-8.1-8.5-8.1c-4.7,0-10.1,3.3-15.2,8.1
		c-5.1,4.9-9.8,11.4-13.3,17.9c2.1-8.7,4-15.7,4-20.3c0-3.9-3.2-5.4-5.9-5.4c-2.9,0-6.8,0.9-11.7,3.1c0.9,1.9,1.2,4.5,1.2,7.3
		c0,3-0.5,7.1-1.4,12.3c-0.9,5.2-2.5,11.4-4.6,18.6c-1.9,6.3-4.1,12.7-6.6,18.9c3.6,0.6,6.5,0.9,8.7,0.9c5.7,0,7.7-2,9.3-6
		c2.6-6.5,4.3-10.9,6.1-14.7c1.8-3.8,3.5-7.1,6.3-11.5C154,74.4,159.4,67.4,162.5,67.4L162.5,67.4z M222.9,59.2c0,0.2,0,0.4,0,0.7
		c0,5.2-4.3,8.9-9.4,8.9c-2.2,0-4.4-0.1-6.4-0.1c-0.9,0-1.7,0-2.5,0.2c-1.1,5.4-2.5,11.4-4,17.3c-0.9,3.4-1.9,8.3-1.8,11.9
		c0.1,3.5,1.7,5.4,4.4,5.4c1.3,0,3.7-2.1,5.7-4.2c3.6-3.8,5.7-5.7,6.8-5.7c0.5,0,0.6,0.3,0.6,1c0,8-11.7,20.3-19.8,20.3
		c-9.3,0-13-5.6-13-14.5c0-2.2,0.3-4.6,0.7-6.9c1.1-6.6,1.4-8.5,3.7-17.7c1.2-4.7,2.5-9.9,3.4-14.8c0.9-4.8,1.6-9.3,1.6-12.6
		c0-2.1-0.2-3.9-1.2-6.1c4.7-2.7,8.5-3.7,12.1-3.7c3.6,0,5.5,2.1,5.5,5.5c0-0.3-0.6,5-2.7,16c1.9,0,3.8,0,5.8,0
		C215.6,60,219.1,59.8,222.9,59.2L222.9,59.2z M307.6,58.9c2,0,4.2,1,6.5,3.2c3.3-2.3,4.7-4.4,4.4-6.6c-0.4-2.6-2.3-3.3-6.4-3.3
		c-12.8,0-27.3,6.3-27.3,20.6c0,4.4,1.5,8.8,4.5,12.2c4.2,4.8,8.9,8.5,8.9,13.7c0,6-3.3,9.1-8.6,8.9c-6.7-0.2-11-6.5-13.6-13.4
		c-2,1.1-4.5,3.5-4.5,7.3c0,8.7,8.8,13.7,16.5,13.7c13.5,0,25.8-10.4,25.8-23.8c0-8.1-4.9-13.4-9.7-19.2c-1.8-2.2-2.9-4.2-2.9-6.5
		C301.1,61.4,303.1,58.9,307.6,58.9z"/>
	<g>
		<path class="st9" d="M284.7,72.8c0,4.4,1.5,8.8,4.5,12.2c4.2,4.8,8.9,8.5,8.9,13.7c0,6-3.3,9.1-8.6,8.9c-6.7-0.2-11-6.5-13.6-13.4
			c-2,1.1-4.5,3.5-4.5,7.3c0,8.7,8.8,13.7,16.5,13.7c13.5,0,25.8-10.4,25.8-23.8c0-8.1-4.9-13.4-9.7-19.2c-0.3-0.3-0.5-0.6-0.8-1
			c-5.9-0.9-11.9-1.8-18.1-2.6C284.9,70,284.7,71.4,284.7,72.8z"/>
		<path class="st9" d="M13.2,116.3c4.5,0,9.4-1.1,12.2-2.9c-0.7-1.9-1.1-3.2-1.1-6.1c0-4,0.9-10.2,2.3-17.3
			c1.2-5.9,2.5-11.6,3.8-17.3c-5.5,1-10.8,2-15.9,3.1c-2,8.2-4.2,17-6.5,26.3c-0.8,3.3-1.5,6.6-1.5,9.4
			C6.5,114.5,8.5,116.3,13.2,116.3z"/>
		<path class="st9" d="M37.4,79.8c10.3,0,19.5-3.7,26.1-9.5c1-0.9,2-1.9,2.8-2.9c-11.7,1.4-22.8,3-33.3,4.7
			C33.2,76.1,34.3,79.8,37.4,79.8z"/>
		<path class="st9" d="M187.3,94.8c0,2.8-1.4,6.1-3.6,9.2c0.9,6.8,4.8,10.9,12.7,10.9c8,0,19.8-12.3,19.8-20.3c0-0.7-0.1-1-0.6-1
			c-1.1,0-3.2,1.9-6.8,5.7c-2,2.1-4.4,4.2-5.7,4.2c-2.7,0-4.2-1.9-4.4-5.4c-0.1-3.7,0.9-8.6,1.8-11.9c1.6-5.9,2.9-11.9,4-17.3
			c0.9-0.2,1.7-0.2,2.5-0.2c2,0,4.2,0.1,6.4,0.1c4.1,0,7.6-2.3,8.9-5.9c-10.2-0.5-20.6-0.9-31.3-1.1c-0.9,4.6-2.2,9.5-3.3,13.9
			c-2.3,9.2-2.6,11.1-3.7,17.7c-0.1,0.7-0.2,1.4-0.3,2.1c1.2-1.1,2.1-1.7,2.8-1.7C187.1,93.9,187.3,94.1,187.3,94.8z"/>
		<path class="st9" d="M183.7,104c-0.2-1.1-0.2-2.4-0.2-3.6c0-1.6,0.2-3.2,0.4-4.8c-1,0.9-2.3,2.2-3.9,3.9c-2.1,2.2-4.5,3.6-5.5,3.9
			c-0.6-1-1.1-2.6-1.1-4.8c0-4,1.9-9.8,3.3-15.3c2.3-8.7,3.7-16.6,3.7-21.7c0,0,0,0,0,0c-3.2,0-6.5-0.1-9.8-0.1
			c-4.7,0-9.3,0-13.9,0.1c-5.1,4.9-9.8,11.4-13.3,17.8c1.7-7.2,3.3-13.2,3.9-17.7c-5.5,0.1-10.9,0.3-16.3,0.5c0,0.6,0.1,1.2,0.1,1.8
			c0,3-0.5,7.1-1.4,12.3c-0.9,5.2-2.5,11.4-4.6,18.6c1.2-1.1,2.1-1.8,2.5-1.8c0.5,0,0.7,0.3,0.7,1c0,4.2-3.2,9.5-7.4,13.7
			c-0.7,2-1.5,4.1-2.3,6.1c3.6,0.6,6.5,0.9,8.7,0.9c5.7,0,7.7-2,9.3-6c2.6-6.5,4.3-10.9,6.1-14.7c1.8-3.8,3.5-7.1,6.3-11.5
			c5.2-8.3,10.6-15.3,13.7-15.3c0.9,0,1.7,0.7,1.7,2.5c0,1.7-1.6,9.7-4.5,22.3c-1.1,5-2.2,8.9-2.2,12.7c0,7,4.1,10.3,10,10.3
			C172.7,115.1,179.6,109.9,183.7,104z"/>
		<path class="st9" d="M125,95.1c-2.9,2.7-7.5,7.3-9.7,7.7c-0.6-1-1.2-2.6-1.2-4.8c0-4,0.9-8.7,2.1-13.8c1.3-5.1,2.9-10.6,4.5-16
			c0.5-2,0.9-3.8,1.2-5.5c-5.3,0.3-10.6,0.6-15.8,0.9c-1,5.7-3.7,13.1-8.2,21.2c-6.1,11.1-13.1,18.7-16.2,18.7
			c-1.7,0-2.1-1.4-2.1-2.9c0-2.7,0.9-7.3,2.3-13.1c1.4-5.8,3.2-13,5-20.8c0.1-0.5,0.2-1,0.4-1.6c-5.5,0.5-10.8,1-16.1,1.6
			c-0.7,4.4-2.1,10.2-3.5,16c-2,8.4-4,16.9-4,21.2c0,5.7,1.5,11.5,9.7,11.5c9,0,17.4-7.5,26-21.5c-0.6,3-1,5.6-1,8.6
			c0,8,3.7,11.9,9.9,11.9c3.8,0,8.6-2.8,12.4-6.6C122.3,103.7,123.8,99.4,125,95.1C125,95.1,125,95.1,125,95.1z"/>
	</g>
	<linearGradient id="SVGID_7_" gradientUnits="userSpaceOnUse" x1="169.5994" y1="162.0099" x2="168.7971" y2="207.9763">
		<stop  offset="0" style="stop-color:#0094D6"/>
		<stop  offset="1" style="stop-color:#001E51"/>
	</linearGradient>
	<path class="st10" d="M68.9,183.4c-1.3-5.5-1.5-12.4,4.2-16.8c5.7-4.4,17.1-6.3,30-6.5c12.8-0.2,27,1.2,45.7,3
		c18.6,1.8,41.7,4,58.4,4.4c16.7,0.4,27-1,36.8-3.3c9.8-2.3,19-5.6,23.4-7.2c4.4-1.6,4.1-1.7,2.1,2.7c-2,4.4-5.6,13.1-12.3,21.6
		c-6.8,8.5-16.7,16.8-30.4,23.1c-13.6,6.3-31,10.7-46.8,11.6c-15.8,0.8-30.2-1.9-44.4-5.3c-14.2-3.4-28.3-7.6-36.2-9.3
		c-7.9-1.7-9.8-0.9-10.2,0.1c-0.4,1,0.5,2.1,0.1,2.5c-0.4,0.4-2.1-0.1-4.7-1.4c-2.6-1.3-6-3.4-8.9-6.5
		C72.8,192.9,70.3,188.8,68.9,183.4z"/>
	<g>
		<defs>
			<path id="SVGID_8_" d="M68.9,183.4c-1.3-5.5-1.5-12.4,4.2-16.8c5.7-4.4,17.1-6.3,30-6.5c12.8-0.2,27,1.2,45.7,3
				c18.6,1.8,41.7,4,58.4,4.4c16.7,0.4,27-1,36.8-3.3c9.8-2.3,19-5.6,23.4-7.2c4.4-1.6,4.1-1.7,2.1,2.7c-2,4.4-5.6,13.1-12.3,21.6
				c-6.8,8.5-16.7,16.8-30.4,23.1c-13.6,6.3-31,10.7-46.8,11.6c-15.8,0.8-30.2-1.9-44.4-5.3c-14.2-3.4-28.3-7.6-36.2-9.3
				c-7.9-1.7-9.8-0.9-10.2,0.1c-0.4,1,0.5,2.1,0.1,2.5c-0.4,0.4-2.1-0.1-4.7-1.4c-2.6-1.3-6-3.4-8.9-6.5
				C72.8,192.9,70.3,188.8,68.9,183.4z"/>
		</defs>
		<clipPath id="SVGID_9_">
			<use xlink:href="#SVGID_8_"  style="overflow:visible;"/>
		</clipPath>
		<g class="st11">
			<path class="st12" d="M64.5,173.3c0.9-2.4,5.5-8.9,11.5-12.6c6-3.7,13.4-4.5,30-3.7c16.6,0.8,42.3,3.3,64.4,5.2
				c22.1,1.9,40.5,3.1,54.2,2.2c13.7-0.9,22.6-3.9,29.3-6.8c6.7-2.9,11.2-5.7,13.5-5.7c2.3,0,2.4,2.8-1.1,7
				c-3.5,4.2-10.7,9.8-20.5,13.7c-9.9,3.8-22.5,5.9-37.5,7c-15,1-32.5,1-53.9-0.9c-21.4-1.9-46.8-5.8-61.6-7.2
				c-14.8-1.3-19-0.1-22.6,1.3C66.5,174.1,63.7,175.8,64.5,173.3z"/>
		</g>
	</g>
	<path class="st3" d="M130,169.1c0.5-0.3,0.9-0.3,2.1-0.4c0.3,0,0.8,0,0.7,0.4c-0.1,0.3-0.3,1-0.5,1.8c-0.9,3-1.5,6-1.5,6.9
		c0,0.5,0.2,1.1,0.5,1.6c-0.2,0.1-1.3,0.5-2.1,0.4c-0.7-0.1-1.1-0.3-1.1-1c0-0.9,1-4.6,1.4-6.5c-0.2,0.2-0.3,0.3-0.5,0.5
		c-1.8,2-3.5,4-4.2,5.1c-0.4,0.3-0.9,0.5-1.6,0.4c-0.3,0-0.5-0.2-0.6-0.6c-0.1-0.6-0.8-3.5-1.3-5.5c0-0.1-0.1-0.2-0.1-0.3
		c-0.1,0.2-0.2,0.4-0.2,0.6c-0.9,2.4-1.8,4.7-1.8,5.4c0,0.4,0.1,0.6,0.2,0.9c-0.6,0.1-1.2,0.2-1.7,0.2c-0.8,0-1.1-0.2-1.1-0.6
		c0-0.1,0.1-0.4,0.2-0.7c0.3-0.6,2.1-4.9,2.4-5.8c0.3-0.8,0.6-1.7,0.9-2.5c0.1-0.3,0-0.5-0.2-0.8c0.7-0.3,1.3-0.4,1.9-0.4
		c0.5,0,1,0.3,1,0.6c0.2,1,0.8,3.9,1.5,6.5c0,0.2,0.1,0.4,0.2,0.6c0.1-0.1,0.3-0.2,0.4-0.4c1-1.2,2.3-2.7,3.5-4
		c0.8-0.9,1.4-1.7,1.7-2.2C130.1,169.3,130.1,169.2,130,169.1L130,169.1z M142.3,178.7c-0.3,0.3-0.7,0.4-0.9,0.4
		c-0.1-0.1-0.2-0.3-0.2-0.6c0-1.1,1.2-4.7,1.9-5.5c-0.5-0.3-1-0.4-1.6-0.5c-0.5,0-0.9,0.1-1.1,0.3c-0.5-0.3-1.1-0.5-1.8-0.5
		c-2.9-0.2-5.7,2.8-5.8,5.6c-0.1,1.2,0.4,2,1.9,2.2c0,0,0.1,0,0.2,0c1.2,0.1,2.6-0.7,4-2.4c-0.1,0.3-0.1,0.8-0.1,1.2
		c0,1,0.6,1.6,1.6,1.7c1.3,0.1,3.3-1.3,3.3-2.4c0-0.1,0-0.1-0.1-0.1C143.2,178,142.8,178.2,142.3,178.7L142.3,178.7z M137.6,177.5
		c-0.7,0.8-1.3,1.2-1.7,1.2c-0.4,0-0.6-0.3-0.6-0.8c0-1.9,1.5-4.6,3-4.5c0.6,0,1.3,0.3,1.4,0.9C139.4,175.2,138.5,176.5,137.6,177.5
		L137.6,177.5z M148.5,173.7c-0.7,0-1.1,0.3-1.1,0.9c0,0.3,0.2,0.6,0.5,0.9c0.7,0.8,1.5,1.6,1.5,2.7c0,1.8-2.1,3-4.3,2.8
		c-1.3-0.1-2.7-0.9-2.6-2.1c0-0.5,0.4-0.8,0.8-0.9c0.4,1,1.1,1.8,2.2,2c0.9,0.1,1.4-0.3,1.4-1.1c0-0.7-0.7-1.3-1.4-1.9
		c-0.5-0.5-0.7-1.1-0.7-1.7c0-1.9,2.4-2.6,4.5-2.5c0.6,0,1,0.2,1,0.5c0,0.3-0.2,0.6-0.7,0.8C149.2,173.9,148.9,173.7,148.5,173.7
		L148.5,173.7z M164.1,174.1c-0.2,0-0.3-0.1-0.4-0.1c-1.7-0.1-3.2,1.4-4.2,2.7c0.4-1.2,0.7-2.1,0.7-2.4c0-0.5-0.3-0.7-1-0.8
		c-0.5,0-1.1,0.1-1.9,0.3c0.1,0.2,0.2,0.5,0.2,0.7c0,0.7-0.2,1.3-0.4,2.2c-0.2,0.8-1.8,6-2,6.5c-0.1,0.3-0.1,0.5-0.1,0.7
		c0,0.6,0.3,0.9,1,1c0.4,0,1,0,1.7-0.2c-0.1-0.3-0.2-0.5-0.2-0.8c0-0.7,0.3-1.5,0.5-2.1c0.5,0.2,1.1,0.4,1.7,0.4
		c3.1,0.3,5.9-2.9,6-5.9C165.5,175.3,165.1,174.2,164.1,174.1L164.1,174.1z M162.9,176.8c-0.2,2.1-1.6,4.4-3.1,4.3
		c-0.6-0.1-1.3-0.4-1.4-0.9c0.7-1.6,3-4.6,4-4.6c0.4,0,0.6,0.4,0.6,1C162.9,176.6,162.9,176.7,162.9,176.8L162.9,176.8z
		 M174.8,174.7c-0.4,0-1.1,0-1.6,0.1c0.1,0.2,0.1,0.4,0.1,0.6c0,0.9-0.5,2.2-1.4,3.6c-1,1.5-2.2,2.5-2.7,2.5c-0.3,0-0.3-0.2-0.3-0.4
		c0-0.8,0.6-2.6,1.2-4.7c0.1-0.3,0.2-0.6,0.2-1c0-0.5-0.2-0.9-1-0.9c-0.5,0-1.1,0-1.8,0.2c0.1,0.2,0.2,0.5,0.2,0.8
		c0,1.2-1.4,4.7-1.4,5.9c0,0.8,0.2,1.6,1.5,1.8c1.5,0.1,2.9-0.8,4.3-2.7c-0.1,0.4-0.2,0.8-0.2,1.2c0,1.1,0.6,1.8,1.6,1.8
		c1.3,0.1,3.3-1.5,3.3-2.7c0-0.1,0-0.1-0.1-0.2c-0.2,0-1.5,1.2-2,1.3c-0.1-0.2-0.2-0.4-0.2-0.7c0-1.1,0.6-2.7,1.1-4.2
		c0.1-0.5,0.2-0.9,0.2-1.2C175.9,175,175.3,174.7,174.8,174.7L174.8,174.7z M183.3,177.1c-0.5,0-1.4,0.9-2.2,2.1
		c-0.9,1.2-1.2,1.8-2.1,3.7c-0.3,0.6-0.6,0.8-1.5,0.8c-0.3,0-0.8-0.1-1.4-0.2c0.4-0.9,0.8-1.8,1.1-2.6c0.7-2,1-3.5,1-4.4
		c0-0.4-0.1-0.8-0.2-1.1c0.8-0.3,1.4-0.4,1.9-0.3c0.5,0,1,0.3,1,0.8c0,0.7-0.3,1.7-0.7,2.9c1.1-1.8,3.1-3.6,4.6-3.5
		c0.8,0,1.4,0.6,1.4,1.2c0,0.7-0.2,1.9-0.6,3.1c-0.2,0.8-0.6,1.6-0.6,2.2c0,0.3,0.1,0.6,0.2,0.7c0.2,0,0.5-0.2,0.9-0.5
		c0.6-0.5,0.9-0.8,1.1-0.8c0.1,0,0.1,0,0.1,0.1c0,1.2-2,2.8-3.3,2.8c-1,0-1.6-0.5-1.6-1.6c0-0.5,0.2-1.1,0.4-1.8
		c0.5-1.8,0.7-2.9,0.7-3.2C183.6,177.2,183.5,177.1,183.3,177.1L183.3,177.1z M194.1,176.4c-0.6,0.1-1.2,0.1-1.7,0
		c-0.3,0-0.6,0-0.9,0c0.3-1.6,0.4-2.3,0.4-2.3c0-0.5-0.3-0.8-0.9-0.8c-0.6,0-1.2,0.1-1.9,0.4c0.1,0.3,0.2,0.6,0.2,0.9
		c0,0.9-0.4,2.6-0.8,3.9c-0.4,1.3-0.4,1.6-0.6,2.5c-0.1,0.3-0.1,0.7-0.1,1c0,1.3,0.6,2.1,2.1,2.2c1.3,0,3.3-1.6,3.2-2.8
		c0-0.1,0-0.1-0.1-0.1c-0.2,0-0.5,0.3-1.1,0.8c-0.3,0.3-0.7,0.6-0.9,0.6c-0.4,0-0.7-0.3-0.7-0.8c0-0.5,0.2-1.2,0.3-1.7
		c0.3-0.8,0.5-1.7,0.7-2.5c0.1,0,0.3,0,0.4,0c0.3,0,0.7,0,1,0.1c0.8,0,1.5-0.5,1.5-1.2C194.1,176.5,194.1,176.4,194.1,176.4
		L194.1,176.4z M195.6,177.4c1.1-1.1,2.5-1.7,4.1-1.6c2,0.1,3.3,1.1,3.3,2.9c0,2.9-2.7,5.9-5.9,5.8c-2,0-3.3-1.2-3.3-3
		C193.8,179.9,194.4,178.6,195.6,177.4L195.6,177.4z M200.3,178.6c0-0.9-0.3-1.6-1.2-1.7c-1.6,0-2.6,3-2.6,4.8
		c0,0.9,0.3,1.6,1.2,1.6C199.3,183.4,200.3,180.4,200.3,178.6L200.3,178.6z M208.6,176.7c0.3,0,0.7,0.1,1.1,0.5
		c0.5-0.3,0.7-0.6,0.7-0.9c-0.1-0.4-0.4-0.5-1-0.5c-2.1,0-4.4,0.8-4.4,2.8c0,0.6,0.3,1.2,0.8,1.7c0.7,0.7,1.4,1.2,1.4,1.9
		c0,0.8-0.5,1.3-1.4,1.2c-1.1,0-1.8-0.9-2.3-1.8c-0.3,0.2-0.7,0.5-0.7,1c0,1.2,1.4,1.9,2.7,1.9c2.2,0,4.2-1.5,4.2-3.3
		c0-1.1-0.8-1.8-1.6-2.6c-0.3-0.3-0.5-0.6-0.5-0.9C207.5,177,207.8,176.7,208.6,176.7L208.6,176.7z M214.2,182.9
		c0-0.5-0.5-0.8-1.2-0.8c-0.5,0-1,0.2-1.4,0.4c0,0.1,0,0.1,0,0.2c0,0.2-0.1,0.5-0.2,0.9c0,0.1,0,0.2,0,0.2c0,0.4,0.4,0.6,1,0.5
		c0.5,0,1-0.2,1.4-0.4C214,183.6,214.2,183.2,214.2,182.9L214.2,182.9z M219.3,182.7c0-0.5-0.4-0.8-1.2-0.7c-0.5,0-0.9,0.2-1.4,0.4
		c0,0.1,0,0.1,0,0.2c0,0.2-0.1,0.5-0.2,0.9c0,0.1,0,0.1,0,0.2c0.1,0.4,0.4,0.6,1,0.5c0.5,0,1-0.2,1.5-0.4
		C219.2,183.3,219.3,182.9,219.3,182.7L219.3,182.7z M224.6,182.3c0-0.5-0.4-0.7-1.2-0.7c-0.5,0-0.9,0.2-1.4,0.4c0,0.1,0,0.1,0,0.2
		c0,0.2-0.1,0.5-0.2,0.9c0,0.1,0,0.1,0,0.2c0,0.3,0.4,0.5,1,0.5c0.5,0,1-0.2,1.5-0.4C224.5,182.9,224.6,182.6,224.6,182.3
		L224.6,182.3z M116.9,195.2c-0.1,0.8,0.5,1.3,1.5,1.3c1.3,0.1,3.3-1.2,3.3-2.2c0-0.1,0-0.1-0.1-0.1c-0.2,0-1.5,1-2,1
		c-0.1-0.1-0.2-0.3-0.1-0.6c0-0.9,1.3-3,1.4-4.5c0-0.5-0.5-1-1.2-1.1c-1-0.1-2.9,0.8-4.7,2.7c0.3-0.6,0.5-1.3,0.5-2
		c0-0.6-0.5-0.9-1.2-1c-1.1-0.1-3,0.9-4.7,2.8c0.4-0.9,0.7-1.7,0.7-2.2c0-0.4-0.4-0.7-1-0.7c-0.5,0-1.1,0.1-1.9,0.3
		c0.1,0.3,0.2,0.6,0.2,0.9c0,0.9-0.8,3.4-2.2,6c0.6,0.1,1,0.2,1.4,0.2c0.9,0,1.2-0.2,1.5-0.7c0.9-1.6,1.3-2.3,2-3c0.9-1,2-2,2.4-2
		c0.2,0,0.3,0.1,0.3,0.3c0,0.5-0.8,2.5-1.7,5.1c0.3,0.3,0.7,0.4,1.2,0.4c0.4,0,1.1-0.1,1.3-0.2c0-0.1-0.1-0.2,0-0.3
		c0.5-1.8,3.5-5,4.3-5c0.2,0,0.3,0.1,0.3,0.2c0,0.2-0.3,1-0.9,2.5C117.2,194,116.9,194.6,116.9,195.2L116.9,195.2z M130.9,195.9
		c0.6-0.4,1-0.6,1.1-0.6c0.1,0,0.1,0.1,0.1,0.1c-0.1,1-2.1,2.4-3.4,2.2c-1-0.1-1.6-0.7-1.5-1.7c0-0.3,0.1-0.8,0.2-1.1
		c-1.5,1.6-2.8,2.3-4,2.2c-0.1,0-0.1,0-0.2,0c-1.4-0.1-1.9-1-1.8-2.2c0.2-2.7,3.2-5.5,6.1-5.2c0.7,0.1,1.3,0.2,1.7,0.6
		c0.3-0.2,0.7-0.3,1.2-0.2c0.6,0.1,1.1,0.2,1.6,0.5c-0.7,0.7-2.1,4.1-2.2,5.2c0,0.3,0.1,0.5,0.1,0.6
		C130.2,196.3,130.5,196.1,130.9,195.9L130.9,195.9z M126.3,194.6c1-0.9,1.9-2.1,2.3-2.9c-0.2-0.6-0.8-0.9-1.4-1
		c-1.4-0.1-3.1,2.4-3.2,4.2c0,0.5,0.2,0.7,0.6,0.8C125,195.7,125.5,195.3,126.3,194.6L126.3,194.6z M137.5,191.4
		c0.3,0,0.7,0.2,1,0.5c0.6-0.2,0.8-0.5,0.8-0.8c0-0.4-0.3-0.5-1-0.6c-2.1-0.2-4.5,0.3-4.6,2.1c0,0.6,0.2,1.1,0.6,1.7
		c0.6,0.7,1.3,1.3,1.3,2c-0.1,0.8-0.7,1.1-1.5,1c-1.1-0.2-1.7-1.1-2-2c-0.3,0.1-0.8,0.3-0.8,0.8c-0.1,1.1,1.3,1.9,2.5,2.1
		c2.2,0.3,4.2-0.8,4.4-2.5c0.1-1.1-0.6-1.8-1.3-2.7c-0.3-0.3-0.4-0.6-0.4-0.9C136.4,191.6,136.8,191.3,137.5,191.4L137.5,191.4z
		 M146.7,191.8c-0.7,2.1-1.6,4.3-2.3,5.9c-0.3,0.8-0.7,1.2-1,1.6c0.5,0.3,0.9,0.5,1.4,0.6c0.5,0.1,0.9,0,1.3-0.2
		c0.5,0.4,1.2,0.6,1.9,0.7c3.1,0.5,6.1-2.7,6.4-5.5c0.1-1.1-0.1-2.2-1.6-2.4c-1.3-0.2-2.9,0.6-4.6,2.5c1.1-2.5,1.8-4.5,1.9-5.1
		c0-0.5-0.4-0.8-0.9-0.8c-0.6-0.1-1.2,0-1.9,0.2c0.1,0.2,0.1,0.5,0.1,0.7C147.2,190.5,147,191,146.7,191.8L146.7,191.8z
		 M151.5,195.5c-0.5,2.1-2.1,4-3.4,3.8c-0.7-0.1-1.4-0.5-1.4-1.1c0.9-1.5,3.5-4.3,4.4-4.2c0.5,0.1,0.5,0.5,0.5,1
		C151.6,195.1,151.5,195.3,151.5,195.5L151.5,195.5z M158.4,200.7c1.3,0,2.3-0.3,3.4-0.9c0.2,0.4,0.1,0.9-0.3,1.2
		c-0.4,0.3-0.9,0.5-1.5,0.7c-1,0.2-1.9,0.3-2.9,0.1c-2.1-0.3-3.1-1.3-3-2.8c0.1-1.6,1-3,2.3-4.1c1.4-1.1,2.9-1.6,4.5-1.4
		c1.5,0.2,2.2,0.8,2.1,1.9c-0.1,1.1-1.9,2.2-4.4,2.7c-0.6,0.1-1.8,0.4-1.9,0.8c-0.1,0.4,0,0.7,0.1,0.9
		C157.1,200.3,157.7,200.7,158.4,200.7L158.4,200.7z M157.3,197.2c0,0-0.1,0.3-0.3,0.7c0.4-0.5,1-0.7,1.7-0.9
		c1.2-0.4,1.6-0.9,1.8-1.4c0.2-0.5,0.1-1-0.6-1.1C159,194.3,158,195.3,157.3,197.2L157.3,197.2z M169.9,196.5c0.1,0,0.3,0.1,0.2,0.4
		c0,0.2-0.4,1.4-1.2,3.1c-0.3,0.7-0.5,1.2-0.6,1.8c-0.2,1,0.4,1.5,1.3,1.6c1.3,0.1,3.5-1.4,3.7-2.6c0-0.1,0-0.1-0.1-0.1
		c-0.2,0-0.5,0.2-1.2,0.7c-0.4,0.3-0.8,0.4-1,0.5c-0.1-0.2-0.1-0.4-0.1-0.7c0.1-0.6,0.5-1.4,0.9-2.1c0.5-1.2,0.9-2.3,1-3
		c0.1-0.7-0.4-1.2-1.3-1.3c-1.5-0.1-3.7,1.5-5,3.2c0.5-1.2,0.9-2.2,1-2.8c0.1-0.6-0.4-0.8-0.9-0.9c-0.5,0-1.1,0-2,0.2
		c0.1,0.3,0.1,0.7,0.1,1c-0.1,0.8-0.5,2.3-1.5,4.2c-0.4,0.8-0.9,1.7-1.5,2.5c0.6,0.1,1,0.2,1.4,0.3c0.9,0.1,1.3-0.1,1.6-0.7
		c1.2-1.7,1.5-2.3,2.6-3.5C168.4,197.3,169.4,196.4,169.9,196.5L169.9,196.5z M177.4,202.8c1.3-0.1,2.4-0.5,3.5-1.2
		c0.2,0.4,0,0.9-0.4,1.3c-0.4,0.3-0.9,0.6-1.5,0.8c-1,0.3-1.9,0.5-2.9,0.4c-2.1-0.2-3.1-1.1-2.9-2.8c0.2-1.6,1.1-3.2,2.5-4.3
		c1.4-1.1,3-1.8,4.6-1.7c1.5,0.1,2.2,0.7,2,1.8c-0.2,1.1-1.9,2.4-4.5,3c-0.6,0.1-1.8,0.5-1.9,0.9c-0.1,0.4-0.1,0.7,0,0.9
		C176.2,202.5,176.7,202.8,177.4,202.8L177.4,202.8z M176.5,199.2c0,0-0.1,0.3-0.3,0.7c0.4-0.6,1-0.7,1.7-1c1.2-0.5,1.6-1,1.9-1.6
		c0.3-0.5,0.1-1-0.6-1.1C178.2,196.2,177.3,197.3,176.5,199.2L176.5,199.2z M187.1,197.8c0.3,0,0.7,0,1,0c0.6,0,1.4-0.1,2.1-0.3
		c0.2,0,0.3-0.1,0.5-0.2c0,0.2-0.1,0.5-0.2,0.9c-0.2,0.6-0.4,1.2-0.8,2.1c-0.6,1.2-0.8,2.2-0.9,2.5c-0.2,1,0.3,1.5,1.2,1.5
		c0.9,0,2.7-1,3.4-2c0.5-0.7,0.6-1,0.4-1c-0.2,0-0.6,0.3-1.2,0.8c-0.4,0.3-0.8,0.5-1,0.6c-0.1-0.1-0.1-0.4,0-0.7
		c0.1-0.5,0.4-1.4,0.7-1.9c0.2-0.4,0.5-1.1,0.9-2c0.1-0.3,0.2-0.5,0.3-0.8c0.1-0.3,0.1-0.6-0.1-0.8c-0.2-0.2-0.6-0.3-0.9-0.3
		c-0.1,0-0.2,0-0.3,0c-0.5,0-1.4,0.1-2,0.2c-0.7,0-1.3,0.1-1.8,0.1c-0.3,0-0.6,0-0.8,0c0.4-1.3,0.8-2,1.2-2.4
		c0.5-0.6,1.5-0.9,2.3-0.8c1,0.2,1.4,0.5,1.7,1.3c1.3-0.5,2-1.1,2-1.6c0.1-1-0.9-1.1-2.2-1.2c-4.3-0.1-6.4,1.4-7.3,3.8
		c-0.1,0.3-0.2,0.5-0.3,0.8c-1.2-0.1-1.4,0.1-1.8,0.8c0,0,0,0,0,0.1c0,0.2,0.6,0.4,0.9,0.4c0.1,0,0.3,0,0.4,0
		c-0.3,0.6-2.1,5.2-2.4,5.9c-0.5,1-1.3,1.9-2.3,2.5c-0.2,0.1-0.2,0.1-0.3,0.2c0,0.1,0,0.2,0.2,0.2c0.1,0,0.1,0,0.2,0
		c1.9-0.5,3.6-1.7,4.5-3.2C185.7,201.4,186.3,199.5,187.1,197.8L187.1,197.8z M201.2,201.4c0.1,0.2,0.1,0.3,0,0.5
		c-0.4,1.3-3.5,2.3-5,2.4c-2.1,0.1-2.9-0.7-2.6-2.5c0.6-3.1,3.8-6.1,7.2-6.2c1.6,0,2.3,0.2,2.2,0.8c-0.1,0.6-0.9,1.1-1.9,1.4
		c-0.1-0.9-0.4-1.2-1.1-1.2c-1.5,0-2.9,1.8-3.5,4.6c-0.2,1,0,1.7,1,1.7C198.7,202.9,200.1,202.3,201.2,201.4L201.2,201.4z
		 M208.2,191.6c-0.9,0-1.7,0.2-2.5,0.5c0,0.1,0.1,0.1,0.1,0.2c0,0.6-0.4,1.5-0.5,1.9c0,0.2,0.1,0.5,0.9,0.4c1.1-0.2,1.1-0.2,2-1.3
		c0.5-0.6,0.8-0.9,0.9-1.2c0-0.1,0-0.1,0-0.2C209,191.7,208.8,191.5,208.2,191.6L208.2,191.6z M205.7,201.4c-0.4,0.3-0.8,0.6-1,0.6
		c0-0.1-0.1-0.3,0-0.6c0.1-0.4,0.4-1.3,0.7-1.9c0.2-0.4,0.7-1.4,1.1-2.3c0.1-0.3,0.2-0.5,0.3-0.8c0.1-0.3,0.1-0.6-0.1-0.8
		c-0.2-0.2-0.6-0.2-0.9-0.2c-0.6,0-1.2,0.2-1.9,0.4c0.1,0.2,0.2,0.5,0.2,0.7c0,0.2-0.1,0.5-0.2,0.8c-0.2,0.6-0.6,1.5-1.1,2.4
		c-0.6,1.2-0.9,2.2-0.9,2.5c-0.2,0.9,0.2,1.3,1.2,1.3c0.9-0.1,2.7-1.2,3.5-2.2c0.3-0.4,0.5-0.7,0.5-0.8
		C207.2,200.4,206.7,200.7,205.7,201.4L205.7,201.4z M210,196.6c1.3-1.2,2.8-1.9,4.4-2.1c2-0.2,3.3,0.6,2.9,2.1
		c-0.6,2.7-4.1,5.8-7.4,6.3c-2,0.3-3-0.6-2.6-2.3C207.7,199.2,208.6,197.9,210,196.6L210,196.6z M214.6,197c0.2-0.9,0-1.5-0.9-1.4
		c-1.6,0.2-3.2,3.2-3.6,4.9c-0.2,0.9-0.1,1.5,0.8,1.3C212.4,201.6,214.2,198.7,214.6,197L214.6,197z M223.3,193.9
		c0.3-0.1,0.7,0,1,0.2c0.6-0.4,0.9-0.6,0.9-0.9c0-0.3-0.3-0.3-1-0.2c-2.1,0.3-4.7,1.5-5,3.3c-0.1,0.5,0,1,0.4,1.4
		c0.5,0.5,1.2,0.8,1,1.4c-0.2,0.7-0.9,1.2-1.8,1.4c-1.1,0.2-1.5-0.4-1.7-1.2c-0.4,0.2-0.8,0.6-1,1.1c-0.4,1.1,0.9,1.4,2.1,1.1
		c2.2-0.5,4.7-2.2,5.2-3.8c0.3-1-0.4-1.5-1-2c-0.2-0.2-0.4-0.4-0.3-0.7C222.2,194.3,222.6,194,223.3,193.9z"/>
	<path class="st4" d="M129.5,168.5c0.5-0.3,0.9-0.3,2.1-0.4c0.3,0,0.8,0,0.7,0.4c-0.1,0.3-0.3,1-0.5,1.8c-0.9,3-1.5,6-1.5,6.9
		c0,0.5,0.2,1.1,0.5,1.6c-0.2,0.1-1.3,0.5-2.1,0.4c-0.7-0.1-1.1-0.3-1.1-1c0-0.9,1-4.6,1.4-6.5c-0.2,0.2-0.3,0.3-0.5,0.5
		c-1.8,2-3.5,4-4.2,5.1c-0.4,0.3-0.9,0.5-1.6,0.4c-0.3,0-0.5-0.2-0.6-0.6c-0.1-0.6-0.8-3.5-1.3-5.5c0-0.1-0.1-0.2-0.1-0.3
		c-0.1,0.2-0.2,0.4-0.2,0.6c-0.9,2.4-1.8,4.7-1.8,5.4c0,0.4,0.1,0.6,0.2,0.9c-0.6,0.1-1.2,0.2-1.7,0.2c-0.8,0-1.1-0.2-1.1-0.6
		c0-0.1,0.1-0.4,0.2-0.7c0.3-0.6,2.1-4.9,2.4-5.8c0.3-0.8,0.6-1.7,0.9-2.5c0.1-0.3,0-0.5-0.2-0.8c0.7-0.3,1.3-0.4,1.9-0.4
		c0.5,0,1,0.3,1,0.6c0.2,1,0.8,3.9,1.5,6.5c0,0.2,0.1,0.4,0.2,0.6c0.1-0.1,0.3-0.2,0.4-0.4c1-1.2,2.3-2.7,3.5-4
		c0.8-0.9,1.4-1.7,1.7-2.2C129.6,168.7,129.6,168.6,129.5,168.5L129.5,168.5z M141.8,178.1c-0.3,0.3-0.7,0.4-0.9,0.4
		c-0.1-0.1-0.2-0.3-0.2-0.6c0-1.1,1.2-4.7,1.9-5.5c-0.5-0.3-1-0.4-1.6-0.5c-0.5,0-0.9,0.1-1.1,0.3c-0.5-0.3-1.1-0.5-1.8-0.5
		c-2.9-0.2-5.7,2.8-5.8,5.6c-0.1,1.2,0.4,2,1.9,2.2c0,0,0.1,0,0.2,0c1.2,0.1,2.6-0.7,4-2.4c-0.1,0.3-0.1,0.8-0.1,1.2
		c0,1,0.6,1.6,1.6,1.7c1.3,0.1,3.3-1.3,3.3-2.4c0-0.1,0-0.1-0.1-0.1C142.7,177.4,142.3,177.6,141.8,178.1L141.8,178.1z M137.1,176.9
		c-0.7,0.8-1.3,1.2-1.7,1.2c-0.4,0-0.6-0.3-0.6-0.8c0-1.9,1.5-4.6,3-4.5c0.6,0,1.3,0.3,1.4,0.9C138.9,174.7,138,175.9,137.1,176.9
		L137.1,176.9z M148,173.1c-0.7,0-1.1,0.3-1.1,0.9c0,0.3,0.2,0.6,0.5,0.9c0.7,0.8,1.5,1.6,1.5,2.7c0,1.8-2.1,3-4.3,2.8
		c-1.3-0.1-2.7-0.9-2.6-2.1c0-0.5,0.4-0.8,0.8-0.9c0.4,1,1.1,1.8,2.2,2c0.9,0.1,1.4-0.3,1.4-1.1c0-0.7-0.7-1.3-1.4-1.9
		c-0.5-0.5-0.7-1.1-0.7-1.7c0-1.9,2.4-2.6,4.5-2.5c0.6,0,1,0.2,1,0.5c0,0.3-0.2,0.6-0.7,0.8C148.7,173.3,148.4,173.1,148,173.1
		L148,173.1z M163.6,173.5c-0.2,0-0.3-0.1-0.4-0.1c-1.7-0.1-3.2,1.4-4.2,2.7c0.4-1.2,0.7-2.1,0.7-2.4c0-0.5-0.3-0.7-1-0.8
		c-0.5,0-1.1,0.1-1.9,0.3c0.1,0.2,0.2,0.5,0.2,0.7c0,0.7-0.2,1.3-0.4,2.2c-0.2,0.8-1.8,6-2,6.5c-0.1,0.3-0.1,0.5-0.1,0.7
		c0,0.6,0.3,0.9,1,1c0.4,0,1,0,1.7-0.2c-0.1-0.3-0.2-0.5-0.2-0.8c0-0.7,0.3-1.5,0.5-2.1c0.5,0.2,1.1,0.4,1.7,0.4
		c3.1,0.3,5.9-2.9,6-5.9C165,174.7,164.6,173.7,163.6,173.5L163.6,173.5z M162.4,176.2c-0.2,2.1-1.6,4.4-3.1,4.3
		c-0.6-0.1-1.3-0.4-1.4-0.9c0.7-1.6,3-4.6,4-4.6c0.4,0,0.6,0.4,0.6,1C162.4,176,162.4,176.1,162.4,176.2L162.4,176.2z M174.3,174.1
		c-0.4,0-1.1,0-1.6,0.1c0.1,0.2,0.1,0.4,0.1,0.6c0,0.9-0.5,2.2-1.4,3.6c-1,1.5-2.2,2.5-2.7,2.5c-0.3,0-0.3-0.2-0.3-0.4
		c0-0.8,0.6-2.6,1.2-4.7c0.1-0.3,0.2-0.6,0.2-1c0-0.5-0.2-0.9-1-0.9c-0.5,0-1.1,0-1.8,0.2c0.1,0.2,0.2,0.5,0.2,0.8
		c0,1.2-1.4,4.7-1.4,5.9c0,0.8,0.2,1.6,1.5,1.8c1.5,0.1,2.9-0.8,4.3-2.7c-0.1,0.4-0.2,0.8-0.2,1.2c0,1.1,0.6,1.8,1.6,1.8
		c1.3,0.1,3.3-1.5,3.3-2.7c0-0.1,0-0.1-0.1-0.2c-0.2,0-1.5,1.2-2,1.3c-0.1-0.2-0.2-0.4-0.2-0.7c0-1.1,0.6-2.7,1.1-4.2
		c0.1-0.5,0.2-0.9,0.2-1.2C175.4,174.4,174.8,174.1,174.3,174.1L174.3,174.1z M182.8,176.5c-0.5,0-1.4,0.9-2.2,2.1
		c-0.9,1.2-1.2,1.8-2.1,3.7c-0.3,0.6-0.6,0.8-1.5,0.8c-0.3,0-0.8-0.1-1.4-0.2c0.4-0.9,0.8-1.8,1.1-2.6c0.7-2,1-3.5,1-4.4
		c0-0.4-0.1-0.8-0.2-1.1c0.8-0.3,1.4-0.4,1.9-0.3c0.5,0,1,0.3,1,0.8c0,0.7-0.3,1.7-0.7,2.9c1.1-1.8,3.1-3.6,4.6-3.5
		c0.8,0,1.4,0.6,1.4,1.2c0,0.7-0.2,1.9-0.6,3.1c-0.2,0.8-0.6,1.6-0.6,2.2c0,0.3,0.1,0.6,0.2,0.7c0.2,0,0.5-0.2,0.9-0.5
		c0.6-0.5,0.9-0.8,1.1-0.8c0.1,0,0.1,0,0.1,0.1c0,1.2-2,2.8-3.3,2.8c-1,0-1.6-0.5-1.6-1.6c0-0.5,0.2-1.1,0.4-1.8
		c0.5-1.8,0.7-2.9,0.7-3.2C183.1,176.6,183,176.5,182.8,176.5L182.8,176.5z M193.6,175.8c-0.6,0.1-1.2,0.1-1.7,0c-0.3,0-0.6,0-0.9,0
		c0.3-1.6,0.4-2.3,0.4-2.3c0-0.5-0.3-0.8-0.9-0.8c-0.6,0-1.2,0.1-1.9,0.4c0.1,0.3,0.2,0.6,0.2,0.9c0,0.9-0.4,2.6-0.8,3.9
		c-0.4,1.3-0.4,1.6-0.6,2.5c-0.1,0.3-0.1,0.7-0.1,1c0,1.3,0.6,2.1,2.1,2.2c1.3,0,3.3-1.6,3.2-2.8c0-0.1,0-0.1-0.1-0.1
		c-0.2,0-0.5,0.3-1.1,0.8c-0.3,0.3-0.7,0.6-0.9,0.6c-0.4,0-0.7-0.3-0.7-0.8c0-0.5,0.2-1.2,0.3-1.7c0.3-0.8,0.5-1.7,0.7-2.5
		c0.1,0,0.3,0,0.4,0c0.3,0,0.7,0,1,0.1c0.8,0,1.5-0.5,1.5-1.2C193.6,175.9,193.6,175.9,193.6,175.8L193.6,175.8z M195.1,176.8
		c1.1-1.1,2.5-1.7,4.1-1.6c2,0.1,3.3,1.1,3.3,2.9c0,2.9-2.7,5.9-5.9,5.8c-2,0-3.3-1.2-3.3-3C193.3,179.4,193.9,178,195.1,176.8
		L195.1,176.8z M199.8,178c0-0.9-0.3-1.6-1.2-1.7c-1.6,0-2.6,3-2.6,4.8c0,0.9,0.3,1.6,1.2,1.6C198.8,182.8,199.8,179.8,199.8,178
		L199.8,178z M208.1,176.1c0.3,0,0.7,0.1,1.1,0.5c0.5-0.3,0.7-0.6,0.7-0.9c-0.1-0.4-0.4-0.5-1-0.5c-2.1,0-4.4,0.8-4.4,2.8
		c0,0.6,0.3,1.2,0.8,1.7c0.7,0.7,1.4,1.2,1.4,1.9c0,0.8-0.5,1.3-1.4,1.2c-1.1,0-1.8-0.9-2.3-1.8c-0.3,0.2-0.7,0.5-0.7,1
		c0,1.2,1.4,1.9,2.7,1.9c2.2,0,4.2-1.5,4.2-3.3c0-1.1-0.8-1.8-1.6-2.6c-0.3-0.3-0.5-0.6-0.5-0.9C207,176.5,207.3,176.1,208.1,176.1
		L208.1,176.1z M213.7,182.3c0-0.5-0.5-0.8-1.2-0.8c-0.5,0-1,0.2-1.4,0.4c0,0.1,0,0.1,0,0.2c0,0.2-0.1,0.5-0.2,0.9
		c0,0.1,0,0.2,0,0.2c0,0.4,0.4,0.6,1,0.5c0.5,0,1-0.2,1.4-0.4C213.5,183,213.7,182.6,213.7,182.3L213.7,182.3z M218.8,182.1
		c0-0.5-0.4-0.8-1.2-0.7c-0.5,0-0.9,0.2-1.4,0.4c0,0.1,0,0.1,0,0.2c0,0.2-0.1,0.5-0.2,0.9c0,0.1,0,0.1,0,0.2c0.1,0.4,0.4,0.6,1,0.5
		c0.5,0,1-0.2,1.5-0.4C218.7,182.7,218.8,182.4,218.8,182.1L218.8,182.1z M224.1,181.7c0-0.5-0.4-0.7-1.2-0.7
		c-0.5,0-0.9,0.2-1.4,0.4c0,0.1,0,0.1,0,0.2c0,0.2-0.1,0.5-0.2,0.9c0,0.1,0,0.1,0,0.2c0,0.3,0.4,0.5,1,0.5c0.5,0,1-0.2,1.5-0.4
		C224,182.3,224.1,182,224.1,181.7L224.1,181.7z M116.4,194.6c-0.1,0.8,0.5,1.3,1.5,1.3c1.3,0.1,3.3-1.2,3.3-2.2
		c0-0.1,0-0.1-0.1-0.1c-0.2,0-1.5,1-2,1c-0.1-0.1-0.2-0.3-0.1-0.6c0-0.9,1.3-3,1.4-4.5c0-0.5-0.5-1-1.2-1.1c-1-0.1-2.9,0.8-4.7,2.7
		c0.3-0.6,0.5-1.3,0.5-2c0-0.6-0.5-0.9-1.2-1c-1.1-0.1-3,0.9-4.7,2.8c0.4-0.9,0.7-1.7,0.7-2.2c0-0.4-0.4-0.7-1-0.7
		c-0.5,0-1.1,0.1-1.9,0.3c0.1,0.3,0.2,0.6,0.2,0.9c0,0.9-0.8,3.4-2.2,6c0.6,0.1,1,0.2,1.4,0.2c0.9,0,1.2-0.2,1.5-0.7
		c0.9-1.6,1.3-2.3,2-3c0.9-1,2-2,2.4-2c0.2,0,0.3,0.1,0.3,0.3c0,0.5-0.8,2.5-1.7,5.1c0.3,0.3,0.7,0.4,1.2,0.4c0.4,0,1.1-0.1,1.3-0.2
		c0-0.1-0.1-0.2,0-0.3c0.5-1.8,3.5-5,4.3-5c0.2,0,0.3,0.1,0.3,0.2c0,0.2-0.3,1-0.9,2.5C116.7,193.4,116.4,194,116.4,194.6
		L116.4,194.6z M130.4,195.3c0.6-0.4,1-0.6,1.1-0.6c0.1,0,0.1,0.1,0.1,0.1c-0.1,1-2.1,2.4-3.4,2.2c-1-0.1-1.6-0.7-1.5-1.7
		c0-0.3,0.1-0.8,0.2-1.1c-1.5,1.6-2.8,2.3-4,2.2c-0.1,0-0.1,0-0.2,0c-1.4-0.1-1.9-1-1.8-2.2c0.2-2.7,3.2-5.5,6.1-5.2
		c0.7,0.1,1.3,0.2,1.7,0.6c0.3-0.2,0.7-0.3,1.2-0.2c0.6,0.1,1.1,0.2,1.6,0.5c-0.7,0.7-2.1,4.1-2.2,5.2c0,0.3,0.1,0.5,0.1,0.6
		C129.7,195.7,130,195.5,130.4,195.3L130.4,195.3z M125.8,194c1-0.9,1.9-2.1,2.3-2.9c-0.2-0.6-0.8-0.9-1.4-1
		c-1.4-0.1-3.1,2.4-3.2,4.2c0,0.5,0.2,0.7,0.6,0.8C124.5,195.1,125,194.7,125.8,194L125.8,194z M137,190.8c0.3,0,0.7,0.2,1,0.5
		c0.6-0.2,0.8-0.5,0.8-0.8c0-0.4-0.3-0.5-1-0.6c-2.1-0.2-4.5,0.3-4.6,2.1c0,0.6,0.2,1.1,0.6,1.7c0.6,0.7,1.3,1.3,1.3,2
		c-0.1,0.8-0.7,1.1-1.5,1c-1.1-0.2-1.7-1.1-2-2c-0.3,0.1-0.8,0.3-0.8,0.8c-0.1,1.1,1.3,1.9,2.5,2.1c2.2,0.3,4.2-0.8,4.4-2.5
		c0.1-1.1-0.6-1.8-1.3-2.7c-0.3-0.3-0.4-0.6-0.4-0.9C135.9,191,136.2,190.7,137,190.8L137,190.8z M146.2,191.2
		c-0.7,2.1-1.6,4.3-2.3,5.9c-0.3,0.8-0.7,1.2-1,1.6c0.5,0.3,0.9,0.5,1.4,0.6c0.5,0.1,0.9,0,1.3-0.2c0.5,0.4,1.2,0.6,1.9,0.7
		c3.1,0.5,6.1-2.7,6.4-5.5c0.1-1.1-0.1-2.2-1.6-2.4c-1.3-0.2-2.9,0.6-4.6,2.5c1.1-2.5,1.8-4.5,1.9-5.1c0-0.5-0.4-0.8-0.9-0.8
		c-0.6-0.1-1.2,0-1.9,0.2c0.1,0.2,0.1,0.5,0.1,0.7C146.6,189.9,146.5,190.4,146.2,191.2L146.2,191.2z M151,194.9
		c-0.5,2.1-2.1,4-3.4,3.8c-0.7-0.1-1.4-0.5-1.4-1.1c0.9-1.5,3.5-4.3,4.4-4.2c0.5,0.1,0.5,0.5,0.5,1C151.1,194.5,151,194.7,151,194.9
		L151,194.9z M157.9,200.1c1.3,0,2.3-0.3,3.4-0.9c0.2,0.4,0.1,0.9-0.3,1.2c-0.4,0.3-0.9,0.5-1.5,0.7c-1,0.2-1.9,0.3-2.9,0.1
		c-2.1-0.3-3.1-1.2-3-2.8c0.1-1.6,1-3,2.3-4.1c1.4-1.1,2.9-1.6,4.5-1.4c1.5,0.2,2.2,0.8,2.1,1.9c-0.1,1.1-1.9,2.2-4.4,2.7
		c-0.6,0.1-1.8,0.4-1.9,0.8c-0.1,0.4,0,0.7,0.1,0.9C156.6,199.8,157.2,200.1,157.9,200.1L157.9,200.1z M156.8,196.6
		c0,0-0.1,0.3-0.3,0.7c0.4-0.5,1-0.7,1.6-0.9c1.2-0.4,1.6-0.9,1.8-1.4c0.2-0.5,0.1-1-0.6-1.1C158.4,193.8,157.5,194.7,156.8,196.6
		L156.8,196.6z M169.4,195.9c0.1,0,0.3,0.1,0.2,0.4c0,0.2-0.4,1.4-1.2,3.1c-0.3,0.7-0.5,1.2-0.6,1.8c-0.2,1,0.4,1.5,1.3,1.6
		c1.3,0.1,3.5-1.4,3.7-2.6c0-0.1,0-0.1-0.1-0.1c-0.2,0-0.5,0.2-1.2,0.7c-0.4,0.3-0.8,0.4-1,0.5c-0.1-0.2-0.1-0.4-0.1-0.7
		c0.1-0.6,0.5-1.4,0.9-2.1c0.5-1.2,0.9-2.3,1-3c0.1-0.7-0.4-1.2-1.3-1.3c-1.5-0.1-3.7,1.5-5,3.2c0.5-1.2,0.9-2.2,1-2.8
		c0.1-0.6-0.4-0.8-0.9-0.9c-0.5,0-1.1,0-2,0.2c0.1,0.3,0.1,0.7,0.1,1c-0.1,0.8-0.5,2.3-1.5,4.2c-0.4,0.8-0.9,1.7-1.5,2.5
		c0.6,0.1,1,0.2,1.4,0.3c0.9,0.1,1.3-0.1,1.6-0.7c1.2-1.7,1.5-2.3,2.6-3.5C167.9,196.7,168.9,195.8,169.4,195.9L169.4,195.9z
		 M176.9,202.2c1.3-0.1,2.4-0.5,3.5-1.2c0.2,0.4,0,0.9-0.4,1.3c-0.4,0.3-0.9,0.6-1.5,0.8c-1,0.3-1.9,0.5-2.9,0.4
		c-2.1-0.2-3.1-1.1-2.9-2.8c0.2-1.6,1.1-3.2,2.5-4.3c1.4-1.1,3-1.8,4.6-1.7c1.5,0.1,2.2,0.7,2,1.8c-0.2,1.1-1.9,2.4-4.5,3
		c-0.6,0.1-1.8,0.5-1.9,0.9c-0.1,0.4-0.1,0.7,0,0.9C175.7,201.9,176.2,202.2,176.9,202.2L176.9,202.2z M176,198.6
		c0,0-0.1,0.3-0.3,0.7c0.4-0.6,1-0.7,1.7-1c1.2-0.5,1.6-1,1.9-1.6c0.3-0.5,0.1-1-0.6-1.1C177.7,195.6,176.8,196.7,176,198.6
		L176,198.6z M186.6,197.2c0.3,0,0.7,0,1,0c0.6,0,1.4-0.1,2.1-0.3c0.2,0,0.3-0.1,0.5-0.2c0,0.2-0.1,0.5-0.2,0.9
		c-0.2,0.6-0.4,1.2-0.8,2.1c-0.6,1.2-0.8,2.2-0.9,2.5c-0.2,1,0.3,1.5,1.2,1.5c0.9,0,2.7-1,3.4-2c0.5-0.7,0.6-1,0.4-1
		c-0.2,0-0.6,0.3-1.2,0.8c-0.4,0.3-0.8,0.5-1,0.6c-0.1-0.1-0.1-0.4,0-0.7c0.1-0.5,0.4-1.4,0.7-1.9c0.2-0.4,0.5-1.1,0.9-2
		c0.1-0.3,0.2-0.5,0.3-0.8c0.1-0.3,0.1-0.6-0.1-0.8c-0.2-0.2-0.6-0.3-0.9-0.3c-0.1,0-0.2,0-0.3,0c-0.5,0-1.4,0.1-2,0.2
		c-0.7,0-1.3,0.1-1.8,0.1c-0.3,0-0.6,0-0.8,0c0.4-1.3,0.8-2,1.2-2.4c0.5-0.6,1.5-0.9,2.3-0.8c1,0.2,1.4,0.5,1.7,1.3
		c1.3-0.5,2-1.1,2-1.6c0.1-1-0.9-1.1-2.2-1.2c-4.3-0.1-6.4,1.4-7.3,3.8c-0.1,0.3-0.2,0.5-0.3,0.8c-1.2-0.1-1.4,0.1-1.8,0.8
		c0,0,0,0,0,0.1c0,0.2,0.6,0.4,0.9,0.4c0.1,0,0.3,0,0.4,0c-0.3,0.6-2.1,5.2-2.4,5.9c-0.5,1-1.3,1.9-2.3,2.5
		c-0.2,0.1-0.2,0.1-0.3,0.2c0,0.1,0,0.2,0.2,0.2c0.1,0,0.1,0,0.2,0c1.9-0.5,3.6-1.7,4.5-3.2C185.2,200.8,185.8,199,186.6,197.2
		L186.6,197.2z M200.7,200.8c0.1,0.2,0.1,0.3,0,0.5c-0.4,1.3-3.5,2.3-5,2.4c-2.1,0.1-2.9-0.7-2.6-2.5c0.6-3.1,3.8-6.1,7.2-6.2
		c1.6,0,2.3,0.2,2.2,0.8c-0.1,0.6-0.9,1.1-1.9,1.4c-0.1-0.9-0.4-1.2-1.1-1.2c-1.5,0-2.9,1.8-3.5,4.6c-0.2,1,0,1.7,1,1.7
		C198.2,202.3,199.6,201.7,200.7,200.8L200.7,200.8z M207.7,191c-0.9,0-1.7,0.2-2.5,0.5c0,0.1,0.1,0.1,0.1,0.2
		c0,0.6-0.4,1.5-0.5,1.9c0,0.2,0.1,0.5,0.9,0.4c1.1-0.2,1.1-0.2,2-1.3c0.5-0.6,0.8-0.9,0.9-1.2c0-0.1,0-0.1,0-0.2
		C208.5,191.1,208.3,190.9,207.7,191L207.7,191z M205.2,200.9c-0.4,0.3-0.8,0.6-1,0.6c0-0.1-0.1-0.3,0-0.6c0.1-0.4,0.4-1.3,0.7-1.9
		c0.2-0.4,0.7-1.4,1.1-2.3c0.1-0.3,0.2-0.5,0.3-0.8c0.1-0.3,0.1-0.6-0.1-0.8c-0.2-0.2-0.6-0.2-0.9-0.2c-0.6,0-1.2,0.2-1.9,0.4
		c0.1,0.2,0.2,0.5,0.2,0.7c0,0.2-0.1,0.5-0.2,0.8c-0.2,0.6-0.6,1.5-1.1,2.4c-0.6,1.2-0.9,2.2-0.9,2.5c-0.2,0.9,0.2,1.3,1.2,1.3
		c0.9-0.1,2.7-1.2,3.5-2.2c0.3-0.4,0.5-0.7,0.5-0.8C206.7,199.8,206.2,200.1,205.2,200.9L205.2,200.9z M209.4,196
		c1.3-1.2,2.8-1.9,4.4-2.1c2-0.2,3.3,0.6,2.9,2.1c-0.6,2.7-4.1,5.8-7.4,6.3c-2,0.3-3-0.6-2.6-2.3C207.2,198.6,208.1,197.3,209.4,196
		L209.4,196z M214,196.4c0.2-0.9,0-1.5-0.9-1.4c-1.6,0.2-3.2,3.2-3.6,4.9c-0.2,0.9-0.1,1.5,0.8,1.3C211.9,201,213.7,198.1,214,196.4
		L214,196.4z M222.8,193.3c0.3-0.1,0.7,0,1,0.2c0.6-0.4,0.9-0.6,0.9-0.9c0-0.3-0.3-0.3-1-0.2c-2.1,0.3-4.7,1.5-5,3.3
		c-0.1,0.6,0,1,0.4,1.4c0.5,0.5,1.2,0.8,1,1.4c-0.2,0.7-0.9,1.2-1.8,1.4c-1.1,0.2-1.5-0.4-1.7-1.2c-0.4,0.2-0.8,0.6-1,1.1
		c-0.4,1.1,0.9,1.4,2.1,1.1c2.2-0.5,4.7-2.2,5.2-3.8c0.3-1-0.4-1.5-1-2c-0.2-0.2-0.4-0.4-0.3-0.7
		C221.7,193.8,222.1,193.4,222.8,193.3z"/>
	<path class="st4" d="M80.5,131.6v4.9h5.6c0.8,0,1.5-0.2,2.2-0.5v4.4c-0.4-0.2-0.8-0.4-1.2-0.5c-0.4-0.1-0.9-0.1-1.5-0.1h-5.1v5.7
		c0,1.3,0.3,2.3,0.7,3h-7.8c0.4-0.7,0.7-1.7,0.7-3v-14.2c0-1.3-0.3-2.3-0.7-3h14.8l0.5,3.8c-0.5-0.2-0.9-0.4-1.2-0.4
		c-0.3,0-1.1-0.1-2.3-0.1H80.5L80.5,131.6z M90.9,133.5h11.4c0.9,0,1.5,0.1,1.9,0.2c0.4,0.1,0.8,0.4,1.2,0.9
		c0.8,0.9,1.1,1.9,1.1,3.2v6.9c0,1.1,0,1.9,0.1,2.4c0.1,0.4,0.2,0.9,0.4,1.4h-6.1c-0.2-0.4-0.3-0.9-0.4-1.6
		c-0.1,0.5-0.4,0.9-0.7,1.2c-0.4,0.3-0.9,0.4-1.5,0.4h-4.6c-0.8,0-1.4-0.1-1.8-0.2c-0.4-0.1-0.8-0.3-1.1-0.7
		c-0.3-0.3-0.6-0.8-0.7-1.3c-0.2-0.5-0.2-1.2-0.2-2v-2.5c0-1.1,0.3-2,0.8-2.6c0.5-0.6,1.3-0.9,2.4-0.9h5.8c0.5,0,0.9,0,1-0.1
		c0.3-0.1,0.4-0.5,0.4-1c0-0.4-0.1-0.6-0.3-0.8c-0.2-0.1-0.5-0.2-1.1-0.2h-6c-1,0-1.9,0.2-2.6,0.7L90.9,133.5L90.9,133.5z
		 M100.4,141.2h-3c-0.5,0-0.9,0.1-1.1,0.4c-0.2,0.3-0.3,0.8-0.3,1.5v0.7c0,0.7,0.1,1.2,0.3,1.5c0.2,0.3,0.6,0.4,1.1,0.4h1.5
		c0.6,0,0.9-0.1,1.1-0.4c0.2-0.3,0.3-0.8,0.3-1.5V141.2L100.4,141.2z M114.8,133.5l0.2,2.5c0.2-0.6,0.3-1,0.5-1.3
		c0.2-0.3,0.4-0.5,0.7-0.7c0.5-0.3,1.2-0.4,2-0.4h3.1v5c-0.3-0.3-0.6-0.6-1-0.7c-0.4-0.1-0.9-0.2-1.6-0.2h-1.3
		c-0.7,0-1.2,0.2-1.5,0.6c-0.4,0.4-0.5,0.9-0.5,1.6v4.9c0,1.1,0,1.9,0.1,2.4c0.1,0.4,0.2,0.9,0.4,1.4h-7.1c0.2-0.5,0.4-0.9,0.4-1.4
		c0.1-0.4,0.1-1.2,0.1-2.4v-7.4c0-1.1,0-1.9-0.1-2.4c-0.1-0.5-0.2-0.9-0.4-1.4H114.8L114.8,133.5z M128.7,133.5l0.2,1.5
		c0.1-0.6,0.3-0.9,0.5-1.2c0.2-0.2,0.6-0.3,1.2-0.3h6.4c0.8,0,1.4,0.1,1.7,0.3c0.3,0.2,0.5,0.6,0.7,1.2c0.1-0.6,0.3-1,0.5-1.2
		c0.2-0.2,0.6-0.3,1.2-0.3h4.9c0.8,0,1.4,0.1,1.9,0.3c0.4,0.2,0.8,0.5,1.2,1c0.3,0.5,0.6,1,0.7,1.6c0.1,0.6,0.2,1.5,0.2,2.6v5.8
		c0,1.5,0,2.4,0.1,2.6c0,0.3,0.2,0.6,0.4,1.1h-7.1c0.2-0.5,0.4-0.9,0.4-1.4c0.1-0.4,0.1-1.2,0.1-2.4v-6.5c0-0.8-0.1-1.3-0.3-1.5
		c-0.2-0.3-0.5-0.4-1.1-0.4h-1.5c-0.6,0-1,0.1-1.1,0.3c-0.2,0.2-0.3,0.7-0.3,1.4v6.6c0,1.2,0,1.9,0.1,2.4c0.1,0.4,0.2,0.9,0.4,1.4
		h-7.1c0.2-0.5,0.4-0.9,0.4-1.4c0.1-0.4,0.1-1.2,0.1-2.4v-6.5c0-0.7-0.1-1.2-0.3-1.5c-0.2-0.3-0.5-0.4-0.9-0.4h-1.9
		c-0.5,0-0.8,0.1-0.9,0.4c-0.2,0.2-0.3,0.7-0.3,1.3v6.7c0,1.1,0,1.9,0.1,2.4c0.1,0.5,0.2,0.9,0.4,1.4h-7.2c0.2-0.5,0.4-0.9,0.4-1.4
		c0.1-0.4,0.1-1.2,0.1-2.4v-7.4c0-1.1,0-1.9-0.1-2.4c-0.1-0.5-0.2-0.9-0.4-1.4H128.7L128.7,133.5z M153.1,133.5h11.4
		c0.9,0,1.5,0.1,1.9,0.2c0.4,0.1,0.8,0.4,1.2,0.9c0.8,0.9,1.1,1.9,1.1,3.2v6.9c0,1.1,0,1.9,0.1,2.4c0.1,0.4,0.2,0.9,0.4,1.4h-6.1
		c-0.2-0.4-0.3-0.9-0.4-1.6c-0.1,0.5-0.4,0.9-0.7,1.2c-0.4,0.3-0.9,0.4-1.5,0.4h-4.6c-0.8,0-1.4-0.1-1.8-0.2
		c-0.4-0.1-0.8-0.3-1.1-0.7c-0.3-0.3-0.6-0.8-0.7-1.3c-0.2-0.5-0.2-1.2-0.2-2v-2.5c0-1.1,0.3-2,0.8-2.6c0.5-0.6,1.3-0.9,2.4-0.9h5.8
		c0.5,0,0.9,0,1-0.1c0.3-0.1,0.4-0.5,0.4-1c0-0.4-0.1-0.6-0.3-0.8c-0.2-0.1-0.5-0.2-1.1-0.2h-6c-1,0-1.9,0.2-2.6,0.7L153.1,133.5
		L153.1,133.5z M162.6,141.2h-3c-0.5,0-0.9,0.1-1.1,0.4c-0.2,0.3-0.3,0.8-0.3,1.5v0.7c0,0.7,0.1,1.2,0.3,1.5
		c0.2,0.3,0.6,0.4,1.1,0.4h1.5c0.6,0,0.9-0.1,1.1-0.4c0.2-0.3,0.3-0.8,0.3-1.5V141.2L162.6,141.2z M176.9,133.5l0.3,1.5
		c0.3-0.6,0.5-1,0.9-1.2c0.3-0.2,0.8-0.3,1.4-0.3h4.6c0.7,0,1.3,0.1,1.8,0.3c0.4,0.2,0.9,0.5,1.2,1c0.4,0.5,0.6,1,0.8,1.5
		c0.1,0.6,0.2,1.2,0.2,2.1v6.2c0,1.1,0,1.9,0.1,2.4c0.1,0.4,0.2,0.9,0.4,1.4h-7.1c0.2-0.5,0.4-0.9,0.4-1.4c0.1-0.5,0.1-1.3,0.1-2.4
		v-6.5c0-0.8-0.1-1.3-0.3-1.5c-0.2-0.2-0.5-0.4-1.1-0.4h-1.9c-0.4,0-0.7,0.1-0.8,0.3c-0.2,0.2-0.2,0.6-0.2,1.1v6.9
		c0,1.1,0,1.9,0.1,2.4c0.1,0.5,0.2,0.9,0.4,1.4h-7.1c0.2-0.5,0.4-0.9,0.4-1.4c0.1-0.4,0.1-1.2,0.1-2.4v-7.4c0-1.1,0-1.9-0.1-2.4
		c-0.1-0.5-0.2-0.9-0.4-1.4H176.9L176.9,133.5z M194.4,133.5h8.1c1,0,1.8,0.1,2.3,0.2c0.5,0.1,0.9,0.4,1.3,0.8
		c0.4,0.4,0.7,0.9,0.8,1.5c0.2,0.6,0.2,1.3,0.2,2.2v6c0,3-1.4,4.4-4.2,4.3h-8c-1.2,0-2-0.1-2.5-0.2c-0.5-0.1-0.9-0.4-1.3-0.8
		c-0.7-0.8-1-1.9-1-3.4v-6.4c0-1.5,0.5-2.7,1.5-3.5c0.4-0.3,0.7-0.5,1-0.5C193.1,133.5,193.6,133.5,194.4,133.5L194.4,133.5z
		 M196.3,138v5.9c0,0.7,0.1,1.1,0.3,1.4c0.2,0.3,0.6,0.4,1.2,0.4h1.8c0.5,0,0.9-0.1,1.1-0.4c0.2-0.3,0.3-0.8,0.3-1.4v-5.6
		c0-0.7-0.1-1.2-0.4-1.5c-0.2-0.3-0.7-0.4-1.3-0.4h-1.6C196.8,136.3,196.3,136.9,196.3,138L196.3,138z M215.1,133.5l0.2,2.5
		c0.2-0.6,0.3-1,0.5-1.3c0.2-0.3,0.4-0.5,0.7-0.7c0.5-0.3,1.2-0.4,2-0.4h3.1v5c-0.3-0.3-0.6-0.6-1-0.7c-0.4-0.1-0.9-0.2-1.6-0.2
		h-1.3c-0.7,0-1.2,0.2-1.5,0.6c-0.4,0.4-0.5,0.9-0.5,1.6v4.9c0,1.1,0,1.9,0.1,2.4c0.1,0.4,0.2,0.9,0.4,1.4H209
		c0.2-0.5,0.4-0.9,0.4-1.4c0.1-0.4,0.1-1.2,0.1-2.4v-7.4c0-1.1,0-1.9-0.1-2.4c-0.1-0.5-0.2-0.9-0.4-1.4H215.1L215.1,133.5z
		 M235.6,133.5v2.8h-5.2v6.9c0,0.6,0,1.1,0.1,1.3c0,0.2,0.1,0.5,0.3,0.6c0.2,0.3,0.7,0.4,1.5,0.4h1.7c1.1,0,1.9-0.3,2.5-0.8
		l-0.5,3.6h-6.5c-1.3,0-2.2-0.1-2.7-0.2c-0.5-0.2-1-0.5-1.4-1c-0.4-0.5-0.7-1-0.8-1.6c-0.1-0.6-0.2-1.6-0.2-3.2v-6.1h-1.9v-2.8h1.9
		v-3.1l6.1-0.3v3.4H235.6L235.6,133.5z M254.1,142.4h-10.3v1.2c0,0.8,0.1,1.3,0.4,1.6c0.2,0.3,0.8,0.4,1.5,0.4h5.6
		c1.2,0,2.1-0.3,2.7-0.7l-0.4,3.5h-11.2c-1,0-1.7-0.1-2.2-0.2c-0.5-0.1-0.9-0.4-1.3-0.8c-0.7-0.8-1.1-2.1-1.2-4v-4.8
		c0-3.5,1.4-5.2,4.3-5.1h7.7c1,0,1.8,0.1,2.2,0.2c0.5,0.2,0.9,0.5,1.3,0.9c0.3,0.4,0.6,0.9,0.7,1.5c0.1,0.6,0.2,1.4,0.2,2.3V142.4
		L254.1,142.4z M248,139.6V138c0-0.7-0.1-1.2-0.2-1.4c-0.1-0.2-0.4-0.3-0.9-0.3h-2c-0.3,0-0.6,0-0.7,0c-0.1,0-0.2,0.1-0.3,0.2
		c-0.2,0.2-0.2,0.7-0.3,1.4v1.6H248z"/>
</g>
</svg>
